<svg id="Layer_1" enable-background="new 0 0 512 512" height="512" viewBox="0 0 512 512" width="512" xmlns="http://www.w3.org/2000/svg"><g><path d="m124.131 188.043v209.056c0 8.284 6.716 15 15 15h236.151c8.284 0 15-6.716 15-15v-209.056z" fill="#453d81"/><path d="m124.131 336.824v60.275c0 8.284 6.716 15 15 15h236.151c8.284 0 15-6.716 15-15v-60.275z" fill="#38336b"/><path d="m257.207 188.043v224.056h118.076c8.284 0 15-6.716 15-15v-209.056z" fill="#38336b"/><path d="m257.207 336.824v75.275h118.076c8.284 0 15-6.716 15-15v-60.275z" fill="#2e2654"/><path d="m449.409 474.702c-8.284 0-15-6.716-15-15v-282.006c0-8.284 6.716-15 15-15s15 6.716 15 15v282.005c0 8.285-6.716 15.001-15 15.001z" fill="#ff9f00"/><path d="m503.044 143.289-237.871-104.719c-3.805-1.676-8.137-1.696-11.957-.057l-244.129 104.719c-5.501 2.359-9.073 7.764-9.087 13.75s3.532 11.407 9.022 13.792l241 104.719c1.906.829 5.148 1.181 7.184 1.181s2.865-.353 4.771-1.181l241-104.719c5.467-2.375 9.008-7.761 9.022-13.721.016-5.96-3.5-11.363-8.955-13.764z" fill="#38336b"/><path d="m503.044 143.289-237.871-104.719c-2.525-1.112-5.281-1.479-7.966-1.131v239.236c1.629-.131 3.242-.517 4.771-1.181l241-104.719c5.467-2.375 9.008-7.761 9.022-13.721.015-5.961-3.501-11.364-8.956-13.765z" fill="#2e2654"/></g></svg>